<svg aria-hidden="true" style="position: absolute; width: 0; height: 0; overflow: hidden;" version="1.1" xmlns="http://www.w3.org/2000/svg" xmlns:xlink="http://www.w3.org/1999/xlink">
<defs>
<symbol id="aim" viewBox="0 0 64 32">
<title>aim</title>
<path d="M6.524 6.845h-6.203c-0.177 0-0.321-0.144-0.321-0.321v-6.203c0-0.177 0.144-0.321 0.321-0.321h6.203c0.177 0 0.321 0.144 0.321 0.321v6.203c0 0.177-0.144 0.321-0.321 0.321zM6.203 0.642h-5.561v5.561h5.561v-5.561zM1.39 0.963h1.176c0.177 0 0.321 0.144 0.321 0.321s-0.144 0.321-0.321 0.321v0h-0.963v0.963c0 0.177-0.144 0.321-0.321 0.321s-0.321-0.144-0.321-0.321v0-1.604h0.428zM0.963 4.278v0c0-0.177 0.144-0.321 0.321-0.321s0.321 0.144 0.321 0.321v0 0.962l0.963 0c0.177 0 0.321 0.144 0.321 0.321s-0.144 0.321-0.321 0.321v0h-1.604v-1.604zM4.278 0.963v0h1.604v1.604c0 0.177-0.144 0.321-0.321 0.321s-0.321-0.144-0.321-0.321v0-0.963h-0.963c-0.177 0-0.321-0.144-0.321-0.321s0.144-0.321 0.321-0.321zM4.278 5.241v-0h0.963v-0.962c0-0.177 0.144-0.321 0.321-0.321s0.321 0.144 0.321 0.321v0 1.604h-1.604c-0.177 0-0.321-0.144-0.321-0.321s0.144-0.321 0.321-0.321z"></path>
</symbol>
<symbol id="alarm" viewBox="0 0 64 32">
<title>alarm</title>
<path fill="#95e1d3" style="fill: var(--color1, #95e1d3)" d="M6.575 2.033c-0.339-0.791-0.973-1.425-1.763-1.763 0.214-0.168 0.483-0.27 0.776-0.27 0.694 0 1.256 0.563 1.256 1.256 0 0.293-0.101 0.562-0.27 0.776zM6.524 3.422c0 0.824-0.323 1.571-0.848 2.126l0.434 0.434c0.057 0.058 0.093 0.137 0.093 0.224 0 0.175-0.142 0.317-0.317 0.317-0.088 0-0.167-0.035-0.224-0.093l-0.466-0.466c-0.503 0.351-1.113 0.559-1.773 0.559-0.659 0-1.268-0.207-1.77-0.557l-0.463 0.463c-0.058 0.058-0.138 0.094-0.227 0.094-0.177 0-0.321-0.144-0.321-0.321 0-0.088 0.036-0.169 0.094-0.227l0.43-0.43c-0.523-0.555-0.845-1.301-0.845-2.123 0-1.713 1.389-3.102 3.102-3.102s3.102 1.389 3.102 3.102zM3.422 0.963c-1.359 0-2.46 1.101-2.46 2.46s1.101 2.46 2.46 2.46 2.46-1.101 2.46-2.46c0-1.359-1.101-2.46-2.46-2.46zM4.706 3.743h-1.283c-0.177 0-0.321-0.144-0.321-0.321v-1.711c0-0.177 0.144-0.321 0.321-0.321s0.321 0.144 0.321 0.321v1.39h0.963c0.177 0 0.321 0.144 0.321 0.321s-0.144 0.321-0.321 0.321zM0.275 2.076c-0.172-0.218-0.275-0.493-0.275-0.792 0-0.709 0.575-1.283 1.283-1.283 0.299 0 0.574 0.103 0.793 0.275-0.808 0.346-1.455 0.993-1.801 1.801z"></path>
</symbol>
<symbol id="book" viewBox="0 0 64 32">
<title>book</title>
<path d="M6.645 5.538l-3.095 1.281c-0.039 0.017-0.082 0.026-0.127 0.026s-0.088-0.009-0.127-0.026l-3.095-1.281c-0.117-0.048-0.2-0.163-0.2-0.297v-4.92c0-0.177 0.144-0.321 0.321-0.321 0.043 0 0.085 0.009 0.123 0.024h0l0 0c0.001 0 0.002 0.001 0.003 0.001l2.976 1.231 2.976-1.231c0.001-0 0.002-0.001 0.003-0.001l0.001-0c0.038-0.016 0.079-0.024 0.123-0.024 0.177 0 0.321 0.144 0.321 0.321v4.92c0 0.134-0.083 0.249-0.2 0.297zM3.102 1.819l-2.46-1.018v4.225l2.46 1.018v-4.225zM6.203 0.801l-2.46 1.018v4.225l2.46-1.018v-4.225zM4.252 2.275l1.176-0.535c0.040-0.018 0.085-0.029 0.133-0.029 0.177 0 0.321 0.144 0.321 0.321 0 0.13-0.077 0.241-0.188 0.292v0l-1.176 0.535c-0.041 0.019-0.086 0.029-0.133 0.029-0.177 0-0.321-0.144-0.321-0.321 0-0.13 0.077-0.242 0.188-0.292zM4.252 3.451v0l1.176-0.535c0.040-0.018 0.085-0.029 0.133-0.029 0.177 0 0.321 0.144 0.321 0.321 0 0.13-0.077 0.242-0.188 0.292l-1.176 0.535c-0.041 0.018-0.086 0.029-0.133 0.029-0.177 0-0.321-0.144-0.321-0.321 0-0.13 0.077-0.242 0.188-0.292zM4.252 4.628v0l1.176-0.535c0.040-0.018 0.085-0.029 0.133-0.029 0.177 0 0.321 0.144 0.321 0.321 0 0.13-0.077 0.242-0.188 0.292v0l-1.176 0.535c-0.041 0.019-0.086 0.029-0.133 0.029-0.177 0-0.321-0.144-0.321-0.321 0-0.13 0.077-0.242 0.188-0.292zM1.283 1.711c0.047 0 0.092 0.010 0.133 0.029v0l1.176 0.535c0.111 0.050 0.188 0.162 0.188 0.292 0 0.177-0.144 0.321-0.321 0.321-0.047 0-0.092-0.010-0.133-0.029v0l-1.176-0.535c-0.111-0.050-0.188-0.162-0.188-0.292 0-0.177 0.144-0.321 0.321-0.321zM1.283 2.888c0.047 0 0.092 0.010 0.133 0.029v0l1.176 0.535c0.111 0.050 0.188 0.162 0.188 0.292 0 0.177-0.144 0.321-0.321 0.321-0.047 0-0.092-0.010-0.133-0.029v0l-1.176-0.535c-0.111-0.050-0.188-0.162-0.188-0.292 0-0.177 0.144-0.321 0.321-0.321zM1.283 4.064c0.047 0 0.092 0.010 0.133 0.029v0l1.176 0.535c0.111 0.050 0.188 0.162 0.188 0.292 0 0.177-0.144 0.321-0.321 0.321-0.047 0-0.092-0.010-0.133-0.029v0l-1.176-0.535c-0.111-0.050-0.188-0.162-0.188-0.292 0-0.177 0.144-0.321 0.321-0.321z"></path>
</symbol>
<symbol id="graph" viewBox="0 0 32 32">
<title>graph</title>
<path d="M30.5 32h-29c-0.828 0-1.5-0.672-1.5-1.5v-29.001c0-0.827 0.672-1.499 1.5-1.499h29c0.828 0 1.5 0.672 1.5 1.499v29.001c0 0.828-0.672 1.5-1.5 1.5zM29 3h-26v26h26v-26zM5.215 16.239v-0.002l4-2.498c0.229-0.141 0.497-0.222 0.785-0.222 0.311 0 0.6 0.095 0.84 0.257l0.006-0.008 6.631 4.42 7.638-5.391c0.248-0.182 0.554-0.29 0.885-0.29 0.828 0 1.5 0.672 1.5 1.5 0 0.5-0.245 0.943-0.622 1.216h0.001l-8.501 6c-0.246 0.179-0.55 0.284-0.878 0.284-0.321 0-0.618-0.101-0.861-0.272l-6.657-4.438-3.135 1.96c-0.241 0.165-0.533 0.262-0.847 0.262-0.828 0-1.5-0.672-1.5-1.5 0-0.541 0.286-1.014 0.715-1.278z"></path>
</symbol>
<symbol id="home" viewBox="0 0 64 32">
<title>home</title>
<path d="M6.845 3.529c0 0.177-0.144 0.321-0.321 0.321-0.085 0-0.161-0.033-0.218-0.087l-0.001 0.001-2.883-2.883-2.876 2.876c-0.058 0.057-0.138 0.092-0.225 0.092-0.177 0-0.321-0.144-0.321-0.321 0-0.091 0.038-0.173 0.099-0.231l3.093-3.093c0.058-0.061 0.14-0.098 0.231-0.098v0 0c0 0 0 0 0 0 0.006 0 0.011 0 0.017 0 0.001 0 0.002 0 0.003 0 0.005 0 0.010 0.001 0.015 0.001 0 0 0 0 0.001 0 0.079 0.009 0.148 0.045 0.2 0.1l0-0 1.262 1.262v-0.295c0-0.177 0.144-0.321 0.321-0.321s0.321 0.144 0.321 0.321v0.936l1.197 1.197-0.001 0.001c0.053 0.057 0.087 0.134 0.087 0.218zM6.203 4.064v2.246c0 0.177-0.144 0.321-0.321 0.321h-0.642v-2.567h-1.283v2.567h-2.995c-0.177 0-0.321-0.144-0.321-0.321v-2.246l2.781-2.781 2.781 2.781zM2.888 4.064h-1.283v1.283h1.283v-1.283z"></path>
</symbol>
<symbol id="pc" viewBox="0 0 37 32">
<title>pc</title>
<path d="M34.286 26.286h-10.857v2.856l2.286 2.287v0.571h-14.857v-0.571l2.286-2.287v-2.856h-10.857c-0.946 0-1.714-0.768-1.714-1.715v-22.856c0-0.947 0.768-1.714 1.714-1.714h32c0.946 0 1.714 0.767 1.714 1.714v22.856c0 0.947-0.768 1.715-1.714 1.715zM33.714 2.286h-30.857v19.429h30.857v-19.429zM14.857 10.286c0.473 0 0.902 0.192 1.213 0.502v0l1.073 1.073 3.359-3.359c0.311-0.311 0.739-0.502 1.213-0.502 0.946 0 1.714 0.767 1.714 1.714 0 0.473-0.192 0.902-0.502 1.213v0l-4.571 4.571c-0.311 0.31-0.739 0.502-1.213 0.502s-0.902-0.192-1.213-0.502v0l-2.286-2.287c-0.31-0.31-0.502-0.738-0.502-1.211 0-0.947 0.768-1.714 1.714-1.714z"></path>
</symbol>
</defs>
</svg>
